<?xml version="1.0" encoding="UTF-8" standalone="no"?>
<!DOCTYPE svg PUBLIC "-//W3C//DTD SVG 1.1//EN" "http://www.w3.org/Graphics/SVG/1.1/DTD/svg11.dtd">
<svg xmlns="http://www.w3.org/2000/svg" version="1.1" viewBox="0.00 0.00 180.00 180.00" width="128" height="128">
<g stroke-width="2.00" fill="none" stroke-linecap="butt">
<path stroke="#82d69c" vector-effect="non-scaling-stroke" d="
  M 50.70 28.58
  L 50.70 102.72
  A 0.29 0.29 0.0 0 0 50.99 103.01
  L 97.42 103.01
  A 38.44 35.29 -0.0 0 0 135.86 67.72
  L 135.86 63.58
  A 38.44 35.29 0.0 0 0 97.42 28.29
  L 50.99 28.29
  A 0.29 0.29 0.0 0 0 50.70 28.58"
/>
<path stroke="#82d69c" vector-effect="non-scaling-stroke" d="
  M 68.69 119.19
  A 0.39 0.39 0.0 0 0 68.30 118.80
  L 51.08 118.80
  A 0.39 0.39 0.0 0 0 50.69 119.19
  L 50.69 151.41
  A 0.39 0.39 0.0 0 0 51.08 151.80
  L 68.30 151.80
  A 0.39 0.39 0.0 0 0 68.69 151.41
  L 68.69 119.19"
/>
<path stroke="#82d69c" vector-effect="non-scaling-stroke" d="
  M 68.65 44.29
  L 68.73 86.85
  A 0.27 0.27 0.0 0 0 69.00 87.12
  L 94.83 87.08
  A 22.28 19.52 -0.1 0 0 117.07 67.52
  L 117.07 63.46
  A 22.28 19.52 -0.1 0 0 94.75 43.98
  L 68.92 44.02
  A 0.27 0.27 0.0 0 0 68.65 44.29"
/>
</g>
<path fill="#04ac38" d="
  M 180.00 0.00
  L 180.00 180.00
  L 0.00 180.00
  L 0.00 0.00
  L 180.00 0.00
  Z
  M 50.70 28.58
  L 50.70 102.72
  A 0.29 0.29 0.0 0 0 50.99 103.01
  L 97.42 103.01
  A 38.44 35.29 -0.0 0 0 135.86 67.72
  L 135.86 63.58
  A 38.44 35.29 0.0 0 0 97.42 28.29
  L 50.99 28.29
  A 0.29 0.29 0.0 0 0 50.70 28.58
  Z
  M 68.69 119.19
  A 0.39 0.39 0.0 0 0 68.30 118.80
  L 51.08 118.80
  A 0.39 0.39 0.0 0 0 50.69 119.19
  L 50.69 151.41
  A 0.39 0.39 0.0 0 0 51.08 151.80
  L 68.30 151.80
  A 0.39 0.39 0.0 0 0 68.69 151.41
  L 68.69 119.19
  Z"
/>
<path fill="#ffffff" d="
  M 50.70 28.58
  A 0.29 0.29 0.0 0 1 50.99 28.29
  L 97.42 28.29
  A 38.44 35.29 -0.0 0 1 135.86 63.58
  L 135.86 67.72
  A 38.44 35.29 -0.0 0 1 97.42 103.01
  L 50.99 103.01
  A 0.29 0.29 0.0 0 1 50.70 102.72
  L 50.70 28.58
  Z
  M 68.65 44.29
  L 68.73 86.85
  A 0.27 0.27 0.0 0 0 69.00 87.12
  L 94.83 87.08
  A 22.28 19.52 -0.1 0 0 117.07 67.52
  L 117.07 63.46
  A 22.28 19.52 -0.1 0 0 94.75 43.98
  L 68.92 44.02
  A 0.27 0.27 0.0 0 0 68.65 44.29
  Z"
/>
<path fill="#04ac38" d="
  M 68.65 44.29
  A 0.27 0.27 0.0 0 1 68.92 44.02
  L 94.75 43.98
  A 22.28 19.52 -0.1 0 1 117.07 63.46
  L 117.07 67.52
  A 22.28 19.52 -0.1 0 1 94.83 87.08
  L 69.00 87.12
  A 0.27 0.27 0.0 0 1 68.73 86.85
  L 68.65 44.29
  Z"
/>
<rect fill="#ffffff" x="50.69" y="118.80" width="18.00" height="33.00" rx="0.39"/>
</svg>