<?xml version="1.0" encoding="UTF-8" standalone="no"?>
<!DOCTYPE svg PUBLIC "-//W3C//DTD SVG 1.1//EN" "http://www.w3.org/Graphics/SVG/1.1/DTD/svg11.dtd">
<svg xmlns="http://www.w3.org/2000/svg" version="1.1" viewBox="0.00 0.00 180.00 180.00" width="128" height="128">
<g stroke-width="2.00" fill="none" stroke-linecap="butt">
<path stroke="#e44040" vector-effect="non-scaling-stroke" d="
  M 94.31 15.17
  Q 82.43 30.28 68.70 43.60"
/>
<path stroke="#772529" vector-effect="non-scaling-stroke" d="
  M 68.70 43.60
  C 61.78 42.94 56.96 49.02 59.02 55.63"
/>
<path stroke="#e44040" vector-effect="non-scaling-stroke" d="
  M 59.02 55.63
  L 39.19 77.21"
/>
<path stroke="#d53838" vector-effect="non-scaling-stroke" d="
  M 39.19 77.21
  Q 39.99 72.64 37.09 69.72"
/>
<path stroke="#de3d3d" vector-effect="non-scaling-stroke" d="
  M 37.09 69.72
  Q 34.09 67.57 29.93 67.63"
/>
<path stroke="#e44040" vector-effect="non-scaling-stroke" d="
  M 29.93 67.63
  L 24.66 66.08"
/>
<path stroke="#d93b3b" vector-effect="non-scaling-stroke" d="
  M 113.27 24.78
  Q 76.75 66.43 47.06 98.60
  Q 39.93 106.32 30.22 113.78"
/>
<path stroke="#cf3636" vector-effect="non-scaling-stroke" d="
  M 24.22 96.91
  Q 35.87 90.26 39.19 77.21"
/>
<path stroke="#722327" vector-effect="non-scaling-stroke" d="
  M 59.02 55.63
  Q 61.46 61.13 66.51 61.45
  C 78.33 62.19 80.20 45.46 68.70 43.60"
/>
<path stroke="#d93b3b" vector-effect="non-scaling-stroke" d="
  M 29.93 67.63
  L 7.22 89.22"
/>
<path stroke="#ca3333" vector-effect="non-scaling-stroke" d="
  M 37.09 69.72
  L 10.46 94.37"
/>
<path stroke="#ca3333" vector-effect="non-scaling-stroke" d="
  M 134.53 31.26
  L 120.00 47.54"
/>
<path stroke="#6c2024" vector-effect="non-scaling-stroke" d="
  M 120.00 47.54
  C 116.18 42.17 108.05 42.13 104.73 47.99
  C 101.23 54.18 105.55 61.27 112.74 61.55"
/>
<path stroke="#ca3333" vector-effect="non-scaling-stroke" d="
  M 112.74 61.55
  Q 84.65 92.76 56.81 124.08
  Q 53.41 127.90 45.68 135.59"
/>
<path stroke="#de3d3d" vector-effect="non-scaling-stroke" d="
  M 117.92 20.56
  L 113.27 24.78"
/>
<path stroke="#e44040" vector-effect="non-scaling-stroke" d="
  M 113.27 24.78
  Q 110.35 24.88 110.35 22.23
  A 1.25 1.21 -25.5 0 1 110.65 21.43
  L 113.08 18.71"
/>
<path stroke="#cf3636" vector-effect="non-scaling-stroke" d="
  M 155.31 66.02
  Q 151.00 67.38 146.66 68.06
  Q 141.54 68.86 140.84 73.53
  C 140.04 78.87 143.42 85.16 146.75 89.00
  A 0.60 0.60 0.0 0 0 147.61 89.05
  L 170.35 68.19"
/>
<path stroke="#b92b2b" vector-effect="non-scaling-stroke" d="
  M 175.00 81.90
  Q 165.10 89.46 154.27 95.14
  A 0.83 0.81 45.7 0 1 153.49 95.12
  L 150.00 93.11
  A 0.57 0.56 -53.5 0 0 149.30 93.22
  L 97.31 150.02"
/>
<path stroke="#631b1f" vector-effect="non-scaling-stroke" d="
  M 112.74 61.55
  C 119.91 60.96 123.69 53.75 120.00 47.54"
/>
<path stroke="#03776e" vector-effect="non-scaling-stroke" d="
  M 72.71 51.00
  A 3.72 3.72 0.0 0 0 68.99 47.28
  A 3.72 3.72 0.0 0 0 65.27 51.00
  A 3.72 3.72 0.0 0 0 68.99 54.72
  A 3.72 3.72 0.0 0 0 72.71 51.00"
/>
<path stroke="#03776e" vector-effect="non-scaling-stroke" d="
  M 117.71 50.99
  A 3.72 3.72 0.0 0 0 113.99 47.27
  A 3.72 3.72 0.0 0 0 110.27 50.99
  A 3.72 3.72 0.0 0 0 113.99 54.71
  A 3.72 3.72 0.0 0 0 117.71 50.99"
/>
</g>
<path fill="#e94242" d="
  M 94.31 15.17
  Q 82.43 30.28 68.70 43.60
  C 61.78 42.94 56.96 49.02 59.02 55.63
  L 39.19 77.21
  Q 39.99 72.64 37.09 69.72
  Q 34.09 67.57 29.93 67.63
  L 24.66 66.08
  Q 33.03 34.80 61.52 20.68
  A 0.36 0.36 0.0 0 0 61.60 20.09
  Q 57.10 15.93 51.93 13.82
  Q 49.07 12.65 45.75 14.03
  A 2.08 2.08 0.0 0 1 43.00 12.81
  L 42.99 12.77
  A 2.37 2.37 0.0 0 1 44.22 9.82
  Q 48.80 7.71 53.97 9.81
  C 58.62 11.70 62.60 14.94 66.41 18.30
  A 1.08 1.07 56.3 0 0 67.47 18.52
  Q 80.53 14.29 94.31 15.17
  Z"
/>
<path fill="#e94242" d="
  M 117.92 20.56
  L 113.27 24.78
  Q 110.35 24.88 110.35 22.23
  A 1.25 1.21 -25.5 0 1 110.65 21.43
  L 113.08 18.71
  C 118.73 13.92 128.15 5.41 136.09 10.08
  A 2.19 2.18 -61.6 0 1 136.94 12.94
  L 136.85 13.12
  A 2.01 2.00 -64.3 0 1 134.23 14.04
  Q 130.82 12.46 127.35 14.07
  Q 122.26 16.44 117.92 20.56
  Z"
/>
<path fill="#de3d3d" d="
  M 113.08 18.71
  L 110.65 21.43
  A 1.25 1.21 -25.5 0 0 110.35 22.23
  Q 110.35 24.88 113.27 24.78
  Q 76.75 66.43 47.06 98.60
  Q 39.93 106.32 30.22 113.78
  Q 26.23 105.78 24.22 96.91
  Q 35.87 90.26 39.19 77.21
  L 59.02 55.63
  Q 61.46 61.13 66.51 61.45
  C 78.33 62.19 80.20 45.46 68.70 43.60
  Q 82.43 30.28 94.31 15.17
  Q 103.82 15.58 113.08 18.71
  Z"
/>
<path fill="#d33838" d="
  M 134.53 31.26
  L 120.00 47.54
  C 116.18 42.17 108.05 42.13 104.73 47.99
  C 101.23 54.18 105.55 61.27 112.74 61.55
  Q 84.65 92.76 56.81 124.08
  Q 53.41 127.90 45.68 135.59
  Q 36.18 126.02 30.22 113.78
  Q 39.93 106.32 47.06 98.60
  Q 76.75 66.43 113.27 24.78
  L 117.92 20.56
  Q 127.18 24.74 134.53 31.26
  Z"
/>
<path fill="#c02e2e" d="
  M 155.31 66.02
  Q 151.00 67.38 146.66 68.06
  Q 141.54 68.86 140.84 73.53
  C 140.04 78.87 143.42 85.16 146.75 89.00
  A 0.60 0.60 0.0 0 0 147.61 89.05
  L 170.35 68.19
  Q 176.46 73.48 175.00 81.90
  Q 165.10 89.46 154.27 95.14
  A 0.83 0.81 45.7 0 1 153.49 95.12
  L 150.00 93.11
  A 0.57 0.56 -53.5 0 0 149.30 93.22
  L 97.31 150.02
  Q 89.81 152.57 82.89 150.15
  A 0.29 0.29 0.0 0 0 82.50 150.42
  L 82.50 164.39
  A 0.61 0.60 -90.0 0 1 81.90 165.00
  L 68.10 165.00
  A 0.60 0.60 0.0 0 1 67.50 164.40
  L 67.50 150.62
  A 0.84 0.82 -79.9 0 0 66.97 149.84
  Q 54.79 145.07 45.68 135.59
  Q 53.41 127.90 56.81 124.08
  Q 84.65 92.76 112.74 61.55
  C 119.91 60.96 123.69 53.75 120.00 47.54
  L 134.53 31.26
  Q 149.80 45.17 155.31 66.02
  Z"
/>
<path fill="#050810" d="
  M 68.70 43.60
  C 80.20 45.46 78.33 62.19 66.51 61.45
  Q 61.46 61.13 59.02 55.63
  C 56.96 49.02 61.78 42.94 68.70 43.60
  Z
  M 72.71 51.00
  A 3.72 3.72 0.0 0 0 68.99 47.28
  A 3.72 3.72 0.0 0 0 65.27 51.00
  A 3.72 3.72 0.0 0 0 68.99 54.72
  A 3.72 3.72 0.0 0 0 72.71 51.00
  Z"
/>
<path fill="#050810" d="
  M 120.00 47.54
  C 123.69 53.75 119.91 60.96 112.74 61.55
  C 105.55 61.27 101.23 54.18 104.73 47.99
  C 108.05 42.13 116.18 42.17 120.00 47.54
  Z
  M 117.71 50.99
  A 3.72 3.72 0.0 0 0 113.99 47.27
  A 3.72 3.72 0.0 0 0 110.27 50.99
  A 3.72 3.72 0.0 0 0 113.99 54.71
  A 3.72 3.72 0.0 0 0 117.71 50.99
  Z"
/>
<circle fill="#00e5cc" cx="68.99" cy="51.00" r="3.72"/>
<circle fill="#00e5cc" cx="113.99" cy="50.99" r="3.72"/>
<path fill="#de3d3d" d="
  M 24.66 66.08
  L 29.93 67.63
  L 7.22 89.22
  C 3.90 82.85 3.17 73.21 9.49 68.43
  C 13.79 65.18 19.54 65.10 24.66 66.08
  Z"
/>
<path fill="#de3d3d" d="
  M 170.35 68.19
  L 147.61 89.05
  A 0.60 0.60 0.0 0 1 146.75 89.00
  C 143.42 85.16 140.04 78.87 140.84 73.53
  Q 141.54 68.86 146.66 68.06
  Q 151.00 67.38 155.31 66.02
  Q 163.75 64.27 170.35 68.19
  Z"
/>
<path fill="#d33838" d="
  M 37.09 69.72
  L 10.46 94.37
  Q 8.39 92.04 7.22 89.22
  L 29.93 67.63
  Q 34.09 67.57 37.09 69.72
  Z"
/>
<path fill="#c02e2e" d="
  M 39.19 77.21
  Q 35.87 90.26 24.22 96.91
  Q 16.00 100.27 10.46 94.37
  L 37.09 69.72
  Q 39.99 72.64 39.19 77.21
  Z"
/>
<path fill="#b12727" d="
  M 175.00 81.90
  Q 174.23 87.70 170.96 92.48
  Q 165.49 100.47 156.29 97.16
  A 0.44 0.44 0.0 0 0 155.71 97.47
  C 150.13 119.54 134.85 141.41 113.02 149.86
  A 0.84 0.84 0.0 0 0 112.49 150.64
  L 112.49 164.59
  A 0.41 0.41 0.0 0 1 112.08 165.00
  L 98.14 165.00
  A 0.58 0.58 0.0 0 1 97.56 164.43
  L 97.31 150.02
  L 149.30 93.22
  A 0.57 0.56 -53.5 0 1 150.00 93.11
  L 153.49 95.12
  A 0.83 0.81 45.7 0 0 154.27 95.14
  Q 165.10 89.46 175.00 81.90
  Z"
/>
</svg>