<svg viewBox="0 0 92.5104 15.6835" fill="none" xmlns="http://www.w3.org/2000/svg">
<g id="runner">
<path d="M0 2.35821C0 1.10807 0.880776 0.312533 2.07409 0.312533H8.49523V3.26739H3.86405V15.371H0V2.35821Z" fill="var(--fill-0, #1D1B1B)" style="fill:#1D1B1B;fill:color(display-p3 0.1137 0.1059 0.1059);fill-opacity:1;"/>
<path d="M15.6959 15.371C12.0592 15.371 9.41685 13.4389 9.41685 9.31918V0.312533H13.2809V8.94982C13.2809 11.5637 14.531 12.4445 17.0313 12.4445H20.4976V0.312533H24.3616V13.3253C24.3616 14.5186 23.5093 15.371 22.2875 15.371H15.6959Z" fill="var(--fill-0, #1D1B1B)" style="fill:#1D1B1B;fill:color(display-p3 0.1137 0.1059 0.1059);fill-opacity:1;"/>
<path d="M26.4177 2.35821C26.4177 1.1649 27.2985 0.312533 28.4918 0.312533H35.3676C38.9759 0.312533 41.6466 2.24456 41.6466 6.36432V15.371H37.7826V6.73367C37.7826 4.11976 36.5325 3.23898 34.0038 3.23898H30.2818V15.371H26.4177V2.35821Z" fill="var(--fill-0, #1D1B1B)" style="fill:#1D1B1B;fill:color(display-p3 0.1137 0.1059 0.1059);fill-opacity:1;"/>
<path d="M43.4972 2.35821C43.4972 1.1649 44.378 0.312533 45.5713 0.312533H52.447C56.0554 0.312533 58.7261 2.24456 58.7261 6.36432V15.371H54.862V6.73367C54.862 4.11976 53.6119 3.23898 51.0832 3.23898H47.3612V15.371H43.4972V2.35821Z" fill="var(--fill-0, #1D1B1B)" style="fill:#1D1B1B;fill:color(display-p3 0.1137 0.1059 0.1059);fill-opacity:1;"/>
<path d="M68.6173 15.6835C63.5599 15.6835 59.8948 12.757 59.8948 7.84175C59.8948 2.95486 63.6168 0 68.6173 0C73.7599 0 77.766 3.01168 77.3398 8.77935H63.8156C64.185 11.3933 65.975 12.9275 68.6457 12.9275C70.6346 12.9275 72.0836 12.0752 72.7655 10.5977H76.8852C75.834 13.8651 72.6234 15.6835 68.6173 15.6835ZM63.9293 6.27908H73.3621C72.9075 4.00611 71.146 2.64233 68.6173 2.64233C66.117 2.64233 64.4407 4.06293 63.9293 6.27908Z" fill="var(--fill-0, #1D1B1B)" style="fill:#1D1B1B;fill:color(display-p3 0.1137 0.1059 0.1059);fill-opacity:1;"/>
<path d="M78.6827 2.35821C78.6827 1.10807 79.5635 0.312533 80.7568 0.312533H92.5104V3.26739H82.5468V15.371H78.6827V2.35821Z" fill="var(--fill-0, #1D1B1B)" style="fill:#1D1B1B;fill:color(display-p3 0.1137 0.1059 0.1059);fill-opacity:1;"/>
</g>
</svg>
